<svg xmlns="http://www.w3.org/2000/svg" width="66.879" height="56.983" viewBox="0 0 66.879 56.983">
  <g id="Group_7150" data-name="Group 7150" transform="translate(1275.767 -206.222)">
    <path id="Path_19225" data-name="Path 19225" d="M-1100.836,263.084c-.136.308-.261.621-.409.923-.981,2-2.02,3.974-3.188,5.875a39.28,39.28,0,0,1-2.285,3.463,12.679,12.679,0,0,1-5.072,3.926,12.879,12.879,0,0,1-2.322.748,7.533,7.533,0,0,1-2.022.254.331.331,0,0,0-.354.173c-.025-.18-.164-.151-.282-.149a11.992,11.992,0,0,1-3.947-.613c-.088-.029-.144.016-.214.031a.439.439,0,0,0-.274-.187,12.574,12.574,0,0,1-3.719-2.083c-.083-.065-.2-.123-.182-.265.144-.267.415-.406.615-.617a33.9,33.9,0,0,0,3.068-3.688,8.973,8.973,0,0,0,.862-1.366c.03-.064.1-.131.033-.206a.225.225,0,0,0-.216-.037c-.055.009-.108.035-.163.048-.615.152-1.175.467-1.794.606-.3.068-.363.035-.341-.282.051-.737.136-1.471.18-2.208.02-.331.073-.748-.239-.936s-.588.143-.859.3c-.016.009-.026.029-.041.039-.494.354-.927.78-1.384,1.177-.594.517-.7.482-.9-.283a9.513,9.513,0,0,0-.417-1.437c-.044-.1-.065-.249-.192-.259-.153-.012-.177.151-.223.256a25.676,25.676,0,0,0-1.189,3.536c-.066.238-.046.509-.231.71a2.191,2.191,0,0,1-.482-1.035,11.436,11.436,0,0,1-.568-2.6,16.159,16.159,0,0,1-.033-2.152,14.694,14.694,0,0,1,.509-2.981c.133-.531.284-1.055.465-1.572.016-.046.031-.09.088-.1a.234.234,0,0,0,.188-.155,12.16,12.16,0,0,1,.923-1.628c.348-.52.76-.981,1.146-1.465a9.566,9.566,0,0,1,1.9-1.7,21.98,21.98,0,0,0,4.632-4.555,21.866,21.866,0,0,0,2.22-3.652,21.6,21.6,0,0,0,1.265-3.269,19.369,19.369,0,0,0,.565-2.461c.1-.652.195-1.309.351-1.95a12,12,0,0,1,1.109-2.959c.037-.068.142-.163-.016-.226.044-.206.23-.282.363-.41.623-.606,1.216-1.242,1.845-1.842.178-.17.269-.43.476-.59.058-.045.1-.117.193-.092.109.038.177-.041.255-.091a4.684,4.684,0,0,1,4.107-.53,4.81,4.81,0,0,1,2.319,1.687,5.963,5.963,0,0,1,1.092,2.474,3.676,3.676,0,0,0,1.3,2.094,4.1,4.1,0,0,0,3.9.785,4.079,4.079,0,0,0,2.934-4.01c0-.3-.1-.579-.069-.873a3.169,3.169,0,0,1,.59,1.327,9.223,9.223,0,0,1,.264,3.009c-.045.66-.084,1.323-.139,1.982-.07.837-.2,1.669-.294,2.5-.14,1.23-.356,2.449-.568,3.668-.148.856-.35,1.7-.533,2.553-.031.145.006.309-.11.433-.094.255-.128.526-.2.786-.266.994-.526,1.989-.818,2.976q-.652,2.21-1.454,4.369C-1099.426,259.911-1100.076,261.521-1100.836,263.084Zm-1.474-22.782c-.155-.005-.14.107-.136.2a3.652,3.652,0,0,0,.422,1.34,3.35,3.35,0,0,0,1.139,1.378c.131.092.267.22.461.13a4.181,4.181,0,0,0,2.17-2.022c.072-.155.265-.327.144-.486s-.357-.023-.529.009a5.277,5.277,0,0,1-3.13-.31C-1101.951,240.46-1102.132,240.38-1102.31,240.3Zm-7.348-2.208c-.013.415.149.542.477.448a1.724,1.724,0,0,0,.778-.548,2.649,2.649,0,0,0,.786-1.412c.05-.345-.148-.513-.472-.425a1.809,1.809,0,0,0-.819.583A2.628,2.628,0,0,0-1109.658,238.093Zm13.156,2.351c0,.038,0,.076,0,.113,0,.167.022.341.184.414s.26-.076.342-.184a2.469,2.469,0,0,0,.488-1.6c0-.151-.04-.318-.21-.369s-.282.1-.36.218A2.962,2.962,0,0,0-1096.5,240.445Z" transform="translate(-129.458 -23.077)" fill="#93d0cc"/>
    <path id="Path_19226" data-name="Path 19226" d="M-1243.734,265.607c.158.064.053.159.016.226a12,12,0,0,0-1.109,2.959c-.157.64-.249,1.3-.351,1.95a19.369,19.369,0,0,1-.565,2.461,21.606,21.606,0,0,1-1.265,3.269,21.865,21.865,0,0,1-2.22,3.652,21.977,21.977,0,0,1-4.632,4.555,9.573,9.573,0,0,0-1.9,1.7c-.386.484-.8.945-1.146,1.465a12.16,12.16,0,0,0-.923,1.628.234.234,0,0,1-.188.155c.441-1.338.969-2.644,1.494-3.951.59-1.468,1.265-2.9,1.953-4.321a2.126,2.126,0,0,0,.294-.929,1.484,1.484,0,0,0-.66-1.28,37.481,37.481,0,0,0-8.23-4.532,36.554,36.554,0,0,0-4.78-1.534,36.629,36.629,0,0,0-4.553-.846,9.363,9.363,0,0,1-2.491-.487,2.061,2.061,0,0,1-.491-.264.663.663,0,0,1,.048-1.126,4.716,4.716,0,0,1,1.463-.72c.552-.184,1.108-.362,1.669-.517q1.271-.349,2.566-.608a28.28,28.28,0,0,1,4.255-.511,27.524,27.524,0,0,1,3.812.066c.765.071,1.532.135,2.288.259a24.535,24.535,0,0,1,3.28.732c.475.146.966.264,1.439.421a20.3,20.3,0,0,0,2.491.715,10.348,10.348,0,0,0,3.535.14,2.742,2.742,0,0,0,1.743-1.045Q-1245.368,267.4-1243.734,265.607Z" transform="translate(0 -52.609)" fill="#072b61"/>
    <path id="Path_19227" data-name="Path 19227" d="M-877.223,401.915c.76-1.563,1.41-3.173,2.015-4.8q.8-2.158,1.454-4.369c.291-.987.552-1.982.818-2.976.07-.261.1-.531.2-.786a3.107,3.107,0,0,0,.544,2.239,13.792,13.792,0,0,0,1.42,1.659,12.906,12.906,0,0,0,2.339,1.813,29.77,29.77,0,0,1,5.036,4.017A30.466,30.466,0,0,1-860.53,402a30.092,30.092,0,0,1,2.914,4.708,25.248,25.248,0,0,1,1.608,3.943,4.157,4.157,0,0,1,.191,1.235c-.008.648-.381.789-.931.621a3.509,3.509,0,0,1-1.323-.839c-.975-.9-1.877-1.873-2.894-2.726a39.413,39.413,0,0,0-5.386-3.853,38.449,38.449,0,0,0-4.759-2.382,38.661,38.661,0,0,0-4.226-1.468,1.485,1.485,0,0,0-1.7.509A1.858,1.858,0,0,1-877.223,401.915Z" transform="translate(-353.072 -161.908)" fill="#072b61"/>
    <path id="Path_19228" data-name="Path 19228" d="M-953.963,211.6c-.028.295.071.577.069.873a4.079,4.079,0,0,1-2.934,4.01,4.1,4.1,0,0,1-3.9-.785,3.676,3.676,0,0,1-1.3-2.094,5.963,5.963,0,0,0-1.092-2.474,4.809,4.809,0,0,0-2.319-1.687,4.684,4.684,0,0,0-4.107.53c-.078.05-.146.129-.255.091a15.563,15.563,0,0,1,3.425-2.782,9.157,9.157,0,0,1,3-.967,8.823,8.823,0,0,1,4.092.356,8.719,8.719,0,0,1,3.147,1.822,8.016,8.016,0,0,1,1.846,2.287C-954.155,211.043-954.069,211.326-953.963,211.6Z" transform="translate(-271.057)" fill="#072b61"/>
    <path id="Path_19229" data-name="Path 19229" d="M-1123.8,532.643c.186-.2.165-.472.231-.71a25.658,25.658,0,0,1,1.189-3.536c.046-.105.069-.268.223-.256.127.01.149.157.193.259a9.512,9.512,0,0,1,.417,1.437c.195.765.3.8.9.283.457-.4.89-.823,1.384-1.177.015-.011.025-.03.041-.039.271-.157.542-.492.859-.3s.259.605.239.936c-.044.737-.129,1.472-.18,2.208-.022.317.039.349.341.282.62-.139,1.179-.454,1.794-.606.055-.014.107-.04.163-.049a.225.225,0,0,1,.216.037c.07.075,0,.143-.033.206a8.981,8.981,0,0,1-.862,1.366,33.882,33.882,0,0,1-3.068,3.688c-.2.211-.472.35-.615.617a2.452,2.452,0,0,0-.624.435,4.829,4.829,0,0,1-1.718.947,1.086,1.086,0,0,1-1.357-.758,5.155,5.155,0,0,1-.194-2.045,28.3,28.3,0,0,1,.469-2.962C-1123.774,532.815-1123.88,532.731-1123.8,532.643Z" transform="translate(-134.195 -285.188)" fill="#072b61"/>
    <path id="Path_19230" data-name="Path 19230" d="M-1084.519,630.242c.07-.015.126-.059.214-.031a11.991,11.991,0,0,0,3.947.613c.118,0,.258-.031.282.149a9.407,9.407,0,0,0-.2,1.508c-.157.907-.347,1.8-.583,2.692a25.448,25.448,0,0,1-1.041,3.151,1.97,1.97,0,0,1-.187.342c-.038.056-.062.161-.15.142s-.116-.106-.15-.19c-.143-.362-.217-.744-.327-1.115-.078-.263-.151-.528-.244-.786s-.207-.3-.425-.127c-.46.363-.906.744-1.352,1.124a6.529,6.529,0,0,1-.816.612c-.341.209-.582.09-.638-.309a7.167,7.167,0,0,1,.092-1.955,7.245,7.245,0,0,0,.047-.852c0-.274-.072-.313-.356-.264a8.606,8.606,0,0,0-1.173.408c-.225.073-.447.154-.673.223-.088.027-.2.064-.261-.033a.261.261,0,0,1,.035-.267,17.562,17.562,0,0,1,1.223-1.813,28.059,28.059,0,0,1,2.6-3.041A1.666,1.666,0,0,0-1084.519,630.242Z" transform="translate(-165.869 -375.604)" fill="#072b61"/>
    <path id="Path_19231" data-name="Path 19231" d="M-891.215,302.65c.178.078.359.158.541.236a5.277,5.277,0,0,0,3.13.31c.172-.032.4-.183.529-.009s-.072.331-.144.486a4.181,4.181,0,0,1-2.17,2.022c-.194.09-.329-.038-.461-.13a3.35,3.35,0,0,1-1.139-1.378,3.655,3.655,0,0,1-.422-1.34C-891.355,302.757-891.37,302.644-891.215,302.65Z" transform="translate(-340.553 -85.425)" fill="#072b61"/>
    <path id="Path_19232" data-name="Path 19232" d="M-954.548,268.082a2.629,2.629,0,0,1,.751-1.353,1.81,1.81,0,0,1,.819-.583c.324-.088.521.08.472.425a2.649,2.649,0,0,1-.786,1.412,1.724,1.724,0,0,1-.778.548C-954.4,268.624-954.561,268.5-954.548,268.082Z" transform="translate(-284.569 -53.066)" fill="#072b61"/>
    <path id="Path_19233" data-name="Path 19233" d="M-839.24,291.17a2.962,2.962,0,0,1,.444-1.41c.078-.119.178-.273.36-.218s.207.218.21.369a2.469,2.469,0,0,1-.488,1.6c-.082.108-.181.257-.342.184s-.186-.247-.184-.414C-839.239,291.246-839.24,291.208-839.24,291.17Z" transform="translate(-386.721 -73.803)" fill="#072b61"/>
  </g>
</svg>
