<svg xmlns="http://www.w3.org/2000/svg" width="36.226" height="34.573" viewBox="0 0 36.226 34.573">
  <path id="Path_19223" data-name="Path 19223" d="M285.055,344.628a.43.43,0,0,0,.045-.264.365.365,0,0,0-.115-.207.351.351,0,0,0-.242-.086h-.983a.749.749,0,0,0-.428.155,1.045,1.045,0,0,0-.309.358L275.88,358.6a.437.437,0,0,0-.026.264.372.372,0,0,0,.119.208.376.376,0,0,0,.243.086h.982a.724.724,0,0,0,.428-.159,1,1,0,0,0,.309-.376Zm-7.5,4.13a2.126,2.126,0,0,1-.159.855,1.319,1.319,0,0,1-.48.579,1.416,1.416,0,0,1-.789.216,1.46,1.46,0,0,1-.8-.216,1.3,1.3,0,0,1-.483-.579,2.125,2.125,0,0,1-.164-.855v-1.607a2.155,2.155,0,0,1,.164-.867,1.277,1.277,0,0,1,.483-.577,1.466,1.466,0,0,1,.8-.207,1.421,1.421,0,0,1,.789.207,1.29,1.29,0,0,1,.48.577,2.156,2.156,0,0,1,.159.867Zm1.83-1.607a3.554,3.554,0,0,0-.395-1.671,2.9,2.9,0,0,0-1.115-1.157,3.786,3.786,0,0,0-3.512,0,2.886,2.886,0,0,0-1.124,1.157,3.553,3.553,0,0,0-.395,1.671v1.607a3.611,3.611,0,0,0,.223,1.283,3.026,3.026,0,0,0,.648,1.041,2.91,2.91,0,0,0,1.03.7,3.667,3.667,0,0,0,1.38.256,3.588,3.588,0,0,0,1.365-.256,2.925,2.925,0,0,0,1.026-.7,3.081,3.081,0,0,0,.644-1.041,3.611,3.611,0,0,0,.223-1.283Zm6.875,8.905a2.132,2.132,0,0,1-.16.856,1.311,1.311,0,0,1-.479.579,1.418,1.418,0,0,1-.789.216,1.459,1.459,0,0,1-.8-.216,1.305,1.305,0,0,1-.483-.579,2.132,2.132,0,0,1-.164-.856V354.45a2.094,2.094,0,0,1,.164-.86,1.252,1.252,0,0,1,.483-.566,1.5,1.5,0,0,1,.8-.2,1.46,1.46,0,0,1,.789.2,1.256,1.256,0,0,1,.479.566,2.1,2.1,0,0,1,.16.86Zm1.853-1.607a3.547,3.547,0,0,0-.395-1.67,2.887,2.887,0,0,0-1.124-1.157,3.814,3.814,0,0,0-3.526,0,2.887,2.887,0,0,0-1.124,1.157,3.546,3.546,0,0,0-.395,1.67v1.607a3.612,3.612,0,0,0,.223,1.284,3.05,3.05,0,0,0,.647,1.041,2.951,2.951,0,0,0,1.031.7,3.841,3.841,0,0,0,2.761,0,2.922,2.922,0,0,0,1.031-.7,3.049,3.049,0,0,0,.647-1.041,3.612,3.612,0,0,0,.223-1.284Zm10.03-3.749-4.385-3.4,1.549-5.33a1.158,1.158,0,0,0-1.077-1.48l-5.548-.171-1.875-5.225a1.153,1.153,0,0,0-.731-.709,1.14,1.14,0,0,0-.357-.057,1.154,1.154,0,0,0-.651.2l-4.589,3.127-4.59-3.127a1.157,1.157,0,0,0-1.74.566l-1.875,5.225-5.549.171a1.157,1.157,0,0,0-1.076,1.48l1.55,5.33-4.386,3.4a1.157,1.157,0,0,0,0,1.828l4.386,3.4-1.55,5.33a1.158,1.158,0,0,0,1.076,1.48l5.549.17,1.875,5.226a1.154,1.154,0,0,0,.73.709,1.182,1.182,0,0,0,.358.057,1.155,1.155,0,0,0,.651-.2l4.59-3.126,4.589,3.126a1.156,1.156,0,0,0,1.74-.564l1.875-5.226,5.548-.17a1.159,1.159,0,0,0,1.077-1.48l-1.549-5.33,4.385-3.4a1.155,1.155,0,0,0,0-1.828Z" transform="translate(-262.366 -334.329)" fill="#fff" fill-rule="evenodd"/>
</svg>
