<svg xmlns="http://www.w3.org/2000/svg" width="34.132" height="36.234" viewBox="0 0 34.132 36.234">
                            <g transform="translate(-649.923 -409.167)">
                                <path d="M662.571,418.473h-1.522V426.5c.745.061,1.554.154,2.176.154,2.085,0,2.707-1.212,2.707-3.3v-1.9c0-2.024-1.216-2.988-3.361-2.988" transform="translate(4.717 3.945)" fill="#fff"/>
                                <path d="M682.881,416.47l-14.938-7.111a1.937,1.937,0,0,0-.813-.191c-.049,0-.094,0-.143,0s-.093-.006-.141,0a1.947,1.947,0,0,0-.815.191L651.1,416.47c-.709.336-1.334,1.277-1.136,1.693l1.17,2.458c.225.473,1.326.527,2.032.188l2.133-1V440.7c0,2.287,2.822,4.7,5.075,4.7h13.234c2.546,0,5.075-2.418,5.075-4.7V419.812l2.133,1c.711.339,1.811.285,2.033-.188l1.17-2.458c.2-.416-.43-1.357-1.136-1.693m-15.893-2.116.1.047h-.2Zm7.92,12.636c0,4.2-2.767,6.533-7.185,6.533-.528,0-1.243-.064-1.957-.127v6.6a.885.885,0,0,1-.966.964h-2.24a.907.907,0,0,1-.994-.964v-19.5c0-.624.247-1,.994-1h5.381c3.888,0,6.966,1.494,6.966,5.63Z" transform="translate(0 0)" fill="#fff"/>
                            </g>
                        </svg>